<svg viewBox="0 0 73 24" fill="none" xmlns="http://www.w3.org/2000/svg"><g clip-path="url(#prefix__clip0_318_375)"><path fill-rule="evenodd" clip-rule="evenodd" d="M11.958.617c.195.243.295.57.495 1.226l4.36 14.323A18.145 18.145 0 0011.6 14.4L8.762 4.808a.37.37 0 00-.71.001l-2.804 9.587a18.145 18.145 0 00-5.236 1.767L4.394 1.84c.2-.655.3-.982.496-1.224a1.61 1.61 0 01.652-.483c.29-.116.632-.116 1.316-.116h3.13c.685 0 1.027 0 1.317.116.255.103.48.27.653.484zM12.48 16.848c-.719.614-2.154 1.033-3.806 1.033-2.028 0-3.728-.631-4.18-1.48-.16.486-.197 1.043-.197 1.4 0 0-.106 1.746 1.11 2.962 0-.632.51-1.143 1.142-1.143 1.081 0 1.08.944 1.08 1.71l-.001.067c0 1.162.71 2.158 1.72 2.578a2.342 2.342 0 01-.235-1.027c0-1.108.65-1.52 1.406-2 .602-.381 1.27-.806 1.731-1.656a3.136 3.136 0 00.23-2.445z"/><path d="M26.823 15.942c1.823 0 3.191-.65 3.752-1.754 0 .526.035 1.07.123 1.49h2.998c-.14-.613-.21-1.455-.21-2.56v-2.7c0-2.56-1.508-3.77-4.857-3.77-2.928 0-4.892 1.21-5.12 3.192h3.12c.106-.86.825-1.333 2-1.333 1.157 0 1.806.473 1.806 1.455v.263l-3.174.28c-1.543.159-2.42.422-3.033.843-.65.438-.982 1.104-.982 1.928 0 1.649 1.367 2.666 3.577 2.666zm1.157-1.824c-1.017 0-1.63-.403-1.63-1.052 0-.666.508-1.017 1.788-1.175l2.35-.245v.526c0 1.175-1.017 1.946-2.508 1.946zM40.02 15.942c3.052 0 4.613-1.14 4.613-2.981 0-1.526-.877-2.367-2.999-2.648l-2.648-.298c-.754-.105-1.07-.298-1.07-.72 0-.508.51-.736 1.667-.736 1.595 0 2.7.369 3.594 1.088l1.42-1.42c-.982-1.018-2.682-1.579-4.786-1.579-2.964 0-4.612 1.052-4.612 2.823 0 1.543 1.017 2.403 3.121 2.683l2.385.28c.947.123 1.227.299 1.227.755 0 .526-.526.806-1.753.806-1.824 0-3.051-.49-3.875-1.402l-1.614 1.332c1.07 1.333 2.894 2.017 5.33 2.017zM47.108 8.893v3.7c0 2.174 1.228 3.279 3.858 3.279.806 0 1.438-.088 2.034-.263v-2.28c-.316.07-.702.14-1.21.14-1.105 0-1.648-.49-1.648-1.525V8.893h2.875V6.91h-2.875V3.702l-3.034 1.123V6.91h-1.964v1.982h1.964zM57.373 6.911h-2.77v8.768h3.033v-3.28c0-.946.21-1.805.789-2.349.456-.42 1.105-.649 2.016-.649.333 0 .596.035.895.07V6.718c-.193-.035-.334-.035-.58-.035-1.735 0-2.91 1-3.383 2.63V6.912zM67.33 15.942c3.21 0 5.471-1.701 5.471-4.665 0-2.945-2.262-4.629-5.47-4.629-3.227 0-5.49 1.684-5.49 4.63 0 2.963 2.263 4.664 5.49 4.664zm0-2.017c-1.473 0-2.402-.947-2.402-2.648 0-1.7.93-2.612 2.402-2.612 1.456 0 2.385.912 2.385 2.613 0 1.7-.93 2.647-2.385 2.647z"/></g><defs><clipPath id="prefix__clip0_318_375"><path fill="#fff" d="M0 0h72.805v24H0z"/></clipPath></defs></svg>